<svg fill="currentColor" viewBox="0 0 24 24">
  <path d="M24 4.56c-.89.39-1.84.65-2.84.77a4.93 4.93 0 0 0 2.16-2.72c-.95.56-2 .97-3.13 1.19A4.92 4.92 0 0 0 16.62 3c-2.72 0-4.93 2.21-4.93 4.93 0 .39.04.77.12 1.13C7.69 8.87 4.07 6.92 1.64 3.9c-.43.74-.67 1.6-.67 2.52 0 1.74.89 3.28 2.25 4.18-.83-.03-1.61-.25-2.29-.63v.06c0 2.43 1.73 4.46 4.03 4.92-.42.12-.87.18-1.33.18-.32 0-.63-.03-.93-.09.63 1.97 2.45 3.4 4.6 3.44A9.87 9.87 0 0 1 0 21.54a13.94 13.94 0 0 0 7.56 2.22c9.05 0 14-7.5 14-14 0-.21 0-.42-.02-.63A9.93 9.93 0 0 0 24 4.56z"/>
</svg>